<svg width="157" height="20" viewBox="0 0 157 20" fill="none" xmlns="http://www.w3.org/2000/svg">
<path d="M-0.0039978 4.49597C-0.0039978 3.3025 0.470108 2.1579 1.31402 1.31399C2.15794 0.470077 3.30253 -0.00402832 4.496 -0.00402832H9.504C10.6672 -0.00386424 11.7852 0.446743 12.6235 1.25328C13.4617 2.05981 13.955 3.1596 14 4.32197V9.67597C13.9653 10.5771 13.6608 11.447 13.1259 12.1731C12.591 12.8991 11.8504 13.4478 11 13.748L11.004 4.49597C11.004 4.09815 10.846 3.71662 10.5647 3.43531C10.2834 3.15401 9.90183 2.99597 9.504 2.99597H4.496C4.09818 2.99597 3.71665 3.15401 3.43534 3.43531C3.15404 3.71662 2.996 4.09815 2.996 4.49597V9.50397C2.996 10.158 3.416 10.714 4 10.92V13.976C2.89926 13.8539 1.88219 13.3302 1.14344 12.5051C0.404686 11.68 -0.00385472 10.6115 -0.0039978 9.50397V4.49597ZM6 15.5C6 16.6934 6.47411 17.838 7.31802 18.682C8.16194 19.5259 9.30653 20 10.5 20H15.5C16.6935 20 17.8381 19.5259 18.682 18.682C19.5259 17.838 20 16.6934 20 15.5V10.5C20 9.3931 19.592 8.32506 18.8541 7.50006C18.1161 6.67505 17.1 6.15096 16 6.02797V9.08597C16.582 9.29197 17 9.84597 17 10.5V15.5C17 15.8978 16.842 16.2793 16.5607 16.5606C16.2794 16.8419 15.8978 17 15.5 17H10.5C10.1022 17 9.72065 16.8419 9.43934 16.5606C9.15804 16.2793 9 15.8978 9 15.5V6.25597C8.12243 6.56624 7.36266 7.14101 6.82537 7.90109C6.28809 8.66117 5.99972 9.56916 6 10.5V15.5Z" fill="black"/>
<path d="M41.192 19.36L36.152 14.344L38.168 12.328L43.184 17.344L41.192 19.36ZM35.096 19.36C33.368 19.36 31.876 18.984 30.62 18.232C29.372 17.48 28.408 16.428 27.728 15.076C27.056 13.724 26.72 12.152 26.72 10.36C26.72 8.568 27.056 6.996 27.728 5.644C28.408 4.292 29.372 3.24 30.62 2.488C31.876 1.736 33.368 1.36 35.096 1.36C36.824 1.36 38.312 1.736 39.56 2.488C40.816 3.24 41.78 4.292 42.452 5.644C43.132 6.996 43.472 8.568 43.472 10.36C43.472 12.152 43.132 13.724 42.452 15.076C41.78 16.428 40.816 17.48 39.56 18.232C38.312 18.984 36.824 19.36 35.096 19.36ZM35.096 16.288C36.192 16.304 37.104 16.068 37.832 15.58C38.56 15.092 39.104 14.4 39.464 13.504C39.832 12.608 40.016 11.56 40.016 10.36C40.016 9.16 39.832 8.12 39.464 7.24C39.104 6.36 38.56 5.676 37.832 5.188C37.104 4.7 36.192 4.448 35.096 4.432C34 4.416 33.088 4.652 32.36 5.14C31.632 5.628 31.084 6.32 30.716 7.216C30.356 8.112 30.176 9.16 30.176 10.36C30.176 11.56 30.356 12.6 30.716 13.48C31.084 14.36 31.632 15.044 32.36 15.532C33.088 16.02 34 16.272 35.096 16.288ZM52.8995 19.36C51.5075 19.36 50.2835 19.08 49.2275 18.52C48.1715 17.952 47.3475 17.156 46.7555 16.132C46.1635 15.108 45.8675 13.904 45.8675 12.52V1.744L49.1795 1.72V12.496C49.1795 13.064 49.2755 13.58 49.4675 14.044C49.6595 14.508 49.9235 14.908 50.2595 15.244C50.6035 15.58 50.9995 15.84 51.4475 16.024C51.9035 16.2 52.3875 16.288 52.8995 16.288C53.4275 16.288 53.9155 16.196 54.3635 16.012C54.8195 15.828 55.2155 15.568 55.5515 15.232C55.8875 14.896 56.1475 14.496 56.3315 14.032C56.5235 13.568 56.6195 13.056 56.6195 12.496V1.72H59.9315V12.52C59.9315 13.904 59.6355 15.108 59.0435 16.132C58.4515 17.156 57.6275 17.952 56.5715 18.52C55.5155 19.08 54.2915 19.36 52.8995 19.36ZM63.5216 19V1.72H66.7856V19H63.5216ZM77.7991 19.36C76.0711 19.36 74.5791 18.984 73.3231 18.232C72.0751 17.48 71.1111 16.428 70.4311 15.076C69.7591 13.724 69.4231 12.152 69.4231 10.36C69.4231 8.568 69.7591 6.996 70.4311 5.644C71.1111 4.292 72.0751 3.24 73.3231 2.488C74.5791 1.736 76.0711 1.36 77.7991 1.36C79.7831 1.36 81.4471 1.852 82.7911 2.836C84.1431 3.82 85.0951 5.152 85.6471 6.832L82.3591 7.744C82.0391 6.696 81.4991 5.884 80.7391 5.308C79.9791 4.724 78.9991 4.432 77.7991 4.432C76.7031 4.432 75.7871 4.676 75.0511 5.164C74.3231 5.652 73.7751 6.34 73.4071 7.228C73.0391 8.116 72.8551 9.16 72.8551 10.36C72.8551 11.56 73.0391 12.604 73.4071 13.492C73.7751 14.38 74.3231 15.068 75.0511 15.556C75.7871 16.044 76.7031 16.288 77.7991 16.288C78.9991 16.288 79.9791 15.996 80.7391 15.412C81.4991 14.828 82.0391 14.016 82.3591 12.976L85.6471 13.888C85.0951 15.568 84.1431 16.9 82.7911 17.884C81.4471 18.868 79.7831 19.36 77.7991 19.36ZM88.2894 19V1.72H91.5534V9.688L98.1294 1.72H102.113L94.8894 10.24L102.569 19H98.4414L91.5534 11.128V19H88.2894ZM104.49 19V1.72H107.754V15.952H115.194V19H104.49ZM117.475 19V1.72H120.739V19H117.475ZM124.336 19V1.72H127.648L135.16 13.24V1.72H138.472V19H135.16L127.648 7.48V19H124.336ZM141.821 19V1.72H145.085V9.688L151.661 1.72H155.645L148.421 10.24L156.101 19H151.973L145.085 11.128V19H141.821Z" fill="black"/>
</svg>
